<?xml version="1.0" encoding="utf-8"?>
<!-- Generator: Adobe Illustrator 23.0.6, SVG Export Plug-In . SVG Version: 6.00 Build 0)  -->
<svg version="1.1" id="Layer_1" xmlns="http://www.w3.org/2000/svg" xmlns:xlink="http://www.w3.org/1999/xlink" x="0px" y="0px"
	 viewBox="0 0 204.34 204.34" style="enable-background:new 0 0 204.34 204.34;" xml:space="preserve">
<style type="text/css">
	.st0{opacity:0.3;}
	.st1{fill:#818181;}
</style>
<g class="st0">
	<path class="st1" d="M144.3,84.36c-1.57,10.92-6.33,21.59-14.56,29.12c-7.79,7.13-17.95,10.44-28.33,10.37
		c0.03-0.47,0.04-0.97,0.04-1.5c-0.01-1.4-0.11-2.81-0.33-4.19c-0.15-0.96-0.36-1.9-0.61-2.81c1.34-2.16,3.02-4.13,4.98-5.88
		c4.08-3.66,8.86-6.36,13.22-9.64c-4.88,2.83-9.99,5.24-14.63,8.49c-1.66,1.17-3.26,2.46-4.7,3.88c-0.89-2.02-2.03-3.89-3.47-5.56
		c-0.36-0.42-0.74-0.83-1.14-1.23c0.49-1.16,1.01-2.29,1.58-3.42c2.93-5.8,8.51-10.24,14.03-13.4c6.17-3.55,12.85-6.05,19.29-9.05
		c5.82-2.73,11.72-6.62,12.3-13.62C144.84,71.33,145.32,78.41,144.3,84.36L144.3,84.36z"/>
	<path class="st1" d="M100.51,140.13c-3.9-8.3-14.34-8.02-30.53-15.91c-16.19-7.88-11.46-39.31-11.57-38.25
		c-0.28,2.62,11.15,9.37,25.63,14.51c4.96,1.76,8.42,4.27,10.81,7.06c1.63,1.9,2.78,3.92,3.56,5.92c0.66,1.69,1.07,3.35,1.32,4.91
		c0.22,1.44,0.31,2.79,0.31,3.98c0.01,3-0.48,5.04-0.48,5.04c-1.46-2-2.95-3.71-4.42-5.22c-5.33-5.5-10.34-8.01-12.92-8.97
		c-0.77-0.29-1.32-0.44-1.6-0.49c-0.17-0.03-0.25-0.03-0.2,0c0.62,0.37,1.22,0.75,1.8,1.13c4.14,2.67,7.35,5.44,9.85,8.13
		c0.93,0.99,1.77,1.98,2.52,2.94C101.23,133.57,100.75,140.63,100.51,140.13L100.51,140.13z"/>
</g>
</svg>
